<?xml version="1.0" ?><svg id="false-cross-reject-decline" style="enable-background:new 0 0 15 15;" version="1.1" viewBox="0 0 15 15" xml:space="preserve" xmlns="http://www.w3.org/2000/svg" xmlns:xlink="http://www.w3.org/1999/xlink"><path d="M7.5,0C3.364,0,0,3.364,0,7.5S3.364,15,7.5,15S15,11.636,15,7.5S11.636,0,7.5,0z M7.5,14C3.916,14,1,11.084,1,7.5  S3.916,1,7.5,1S14,3.916,14,7.5S11.084,14,7.5,14z"/><polygon points="10.146,4.146 7.5,6.793 4.854,4.146 4.146,4.854 6.793,7.5 4.146,10.146 4.854,10.854 7.5,8.207 10.146,10.854   10.854,10.146 8.207,7.5 10.854,4.854 "/></svg>